<?xml version="1.0" encoding="UTF-8"?><svg id="Layer_2" xmlns="http://www.w3.org/2000/svg" viewBox="0 0 152.92 30.19"><defs><style>.cls-1{fill:#ec4f27;stroke-width:0px;}</style></defs><g id="Layer_1-2"><path class="cls-1" d="M46.85,2.59v1c0,1.38-1.12,2.5-2.5,2.5-1.31.23-3.4,7.46-4.09,9.84-2.12,7.28-4.13,14.16-9.86,14.16s-7.74-6.87-9.86-14.15c-.69-2.38-2.79-9.62-4.1-9.85-.86.14-2.24,3.45-4.09,9.84-2.12,7.29-4.13,14.16-9.85,14.16-1.38,0-2.5-1.12-2.5-2.5v-1c0-1.37,1.12-2.5,2.5-2.5,1.3-.23,3.4-7.46,4.09-9.83C8.71,6.97,10.71.09,16.45.09s7.74,6.88,9.85,14.17c.69,2.37,2.8,9.6,4.11,9.84,1.28-.24,3.38-7.43,4.07-9.8C36.6,7,38.6.09,44.35.09c1.38,0,2.5,1.13,2.5,2.5Z"/><path class="cls-1" d="M118.42,2.59v1c0,1.38-1.12,2.5-2.5,2.5-1.3.23-3.4,7.46-4.08,9.84-2.13,7.29-4.13,14.16-9.87,14.16s-7.73-6.87-9.86-14.15c-.68-2.38-2.78-9.62-4.09-9.85-.69,0-1.31-.28-1.77-.73-.45-.45-.73-1.08-.73-1.77v-1c0-1.37,1.13-2.5,2.5-2.5,5.76,0,7.75,6.88,9.85,14.17.7,2.37,2.81,9.6,4.11,9.84,1.29-.24,3.39-7.43,4.08-9.8C108.17,7,110.17.09,115.92.09c1.38,0,2.5,1.13,2.5,2.5Z"/><path class="cls-1" d="M82.49,2.72v14.71c0,7-6.8,12.59-15.47,12.71h-.27c-.27,0-.53,0-.79-.01-8.38-.34-14.95-5.92-14.95-12.7V2.55c0-1.38,1.13-2.5,2.5-2.5h1c1.38,0,2.5,1.12,2.5,2.5v14.88c0,3.55,4.04,6.49,9.19,6.7.2.01.37.01.53.01h.26c5.23-.07,9.5-3.08,9.5-6.71V2.72c0-1.38,1.12-2.5,2.5-2.5h1c1.37,0,2.5,1.12,2.5,2.5Z"/><path class="cls-1" d="M137.19,0c-8.67,0-15.73,6.77-15.73,15.09s7.06,15.1,15.73,15.1,15.73-6.77,15.73-15.1-7.06-15.09-15.73-15.09ZM137.19,24.19c-5.37,0-9.73-4.08-9.73-9.1s4.36-9.09,9.73-9.09,9.73,4.08,9.73,9.09-4.37,9.1-9.73,9.1Z"/></g></svg>